<!DOCTYPE svg PUBLIC "-//W3C//DTD SVG 1.1//EN" "http://www.w3.org/Graphics/SVG/1.1/DTD/svg11.dtd">
<!-- Uploaded to: SVG Repo, www.svgrepo.com, Transformed by: SVG Repo Mixer Tools -->
<svg version="1.1" id="Uploaded to svgrepo.com" xmlns="http://www.w3.org/2000/svg" xmlns:xlink="http://www.w3.org/1999/xlink" width="256px" height="256px" viewBox="0 0 32 32" xml:space="preserve" fill="#000000">
<g id="SVGRepo_bgCarrier" stroke-width="0"/>
<g id="SVGRepo_tracerCarrier" stroke-linecap="round" stroke-linejoin="round"/>
<g id="SVGRepo_iconCarrier"> <style type="text/css"> .puchipuchi_een{fill:#00f594 ;} </style> <path class="puchipuchi_een" d="M7,6c0-2.757,2.243-5,5-5s5,2.243,5,5c0,1.627-0.793,3.061-2,3.974V6c0-1.654-1.346-3-3-3 S9,4.346,9,6v3.974C7.793,9.061,7,7.627,7,6z M24,13c-1.104,0-2,0.896-2,2v-1c0-1.104-0.896-2-2-2s-2,0.896-2,2v-1 c0-1.104-0.896-2-2-2s-2,0.896-2,2V6c0-1.104-0.896-2-2-2s-2,0.896-2,2v10.277C9.705,16.106,9.366,16,9,16c-1.104,0-2,0.896-2,2v3 c0,0.454,0.155,0.895,0.438,1.249L11,28h12l2.293-3.293C25.682,24.318,26,23.55,26,23v-8C26,13.896,25.104,13,24,13z M11,29v1 c0,0.552,0.447,1,1,1h10c0.553,0,1-0.448,1-1v-1H11z"/> </g>
</svg>